<svg xmlns="http://www.w3.org/2000/svg" viewBox="0 0 60.11 60.11"><defs><style>.cls-1{fill:#515b2a;}</style></defs><g id="圖層_2" data-name="圖層 2"><g id="圖層_1-2" data-name="圖層 1"><path class="cls-1" d="M0,2A2,2,0,0,1,2,0H8A2,2,0,0,1,10,1.52L11.58,8H58.11a2,2,0,0,1,2,2,1.72,1.72,0,0,1,0,.39l-4,20a2,2,0,0,1-1.87,1.61L16.54,34l1.15,6.13H52.1a2,2,0,1,1,0,4H16a2,2,0,0,1-2-1.63l-6-32L6.45,4H2A2,2,0,0,1,0,2ZM12.43,12,15.8,30l36.64-1.84L55.67,12ZM20,44.08a8,8,0,1,0,8,8A8,8,0,0,0,20,44.08Zm28.05,0a8,8,0,1,0,8,8A8,8,0,0,0,48.09,44.08ZM20,48.09a4,4,0,1,1-4,4A4,4,0,0,1,20,48.09Zm28.05,0a4,4,0,1,1-4,4A4,4,0,0,1,48.09,48.09Z"/></g></g></svg>