<svg xmlns="http://www.w3.org/2000/svg" viewBox="0 0 97.72 98.75"><defs><style>.cls-1{fill:#231815;}</style></defs><g id="圖層_2" data-name="圖層 2"><g id="圖層_1-2" data-name="圖層 1"><path class="cls-1" d="M3.69,27.51l1.36-.14,0,.12-.59.36a4.59,4.59,0,0,0-1.1,1,6.34,6.34,0,0,0-.91,1.55,5,5,0,0,0-.5,2.69c.1.75.4,1.21.88,1.37a1.1,1.1,0,0,0,1-.13,5.11,5.11,0,0,0,1.31-1.47A25.06,25.06,0,0,1,7,30.23a4.27,4.27,0,0,1,1.43-1.06,1.7,1.7,0,0,1,1.64,0,2.09,2.09,0,0,1,.56.46,2.35,2.35,0,0,1,.38.68,3.91,3.91,0,0,1,.19.88,3.86,3.86,0,0,1,0,.9,6.93,6.93,0,0,1-.36,1.25c-.2.56-.33.94-.4,1.11-.47,1.11-.89,2.26-1.28,3.45l-2.53-.82,0-.15a2,2,0,0,0,2.06-.33,7.13,7.13,0,0,0,1.53-2.49,5.79,5.79,0,0,0,.59-2.63,1.64,1.64,0,0,0-.77-1.42,1.09,1.09,0,0,0-.86-.1,2.74,2.74,0,0,0-.93.56,10.43,10.43,0,0,0-1.51,1.83c-.67.94-1.16,1.63-1.5,2a3.21,3.21,0,0,1-1.19.86,1.77,1.77,0,0,1-1.24.11,2,2,0,0,1-1.25-1.83A6.5,6.5,0,0,1,2.23,30a12,12,0,0,1,.83-1.57c.33-.54.53-.83.58-.89A.18.18,0,0,0,3.69,27.51Z"/><path class="cls-1" d="M12,15c.1.43.21.85.32,1.28l-.11.11a.71.71,0,0,0-.16-.22.2.2,0,0,0-.25,0,2.23,2.23,0,0,0-.39.36c-.86,1-1.7,2-2.5,3l6.19,4.85a1.42,1.42,0,0,0,.58.32.45.45,0,0,0,.36-.09,3,3,0,0,0,.4-.43l.07.06c-.7.87-1.37,1.78-2,2.73l-.07,0a1.58,1.58,0,0,0,.31-.77.84.84,0,0,0-.41-.5L7.84,21c-.74,1-1.45,2.12-2.12,3.23a3.57,3.57,0,0,0-.35.69.2.2,0,0,0,.08.26.65.65,0,0,0,.26.05l-.08.14-1.33.1.08-.15a.75.75,0,0,0,.42-.19,4.77,4.77,0,0,0,.45-.68,48.88,48.88,0,0,1,6-8.18,6.84,6.84,0,0,0,.54-.65.5.5,0,0,0,.06-.46Z"/><path class="cls-1" d="M20.36,14.54c-1,.79-2,1.63-2.95,2.52.3,1.3.64,2.59,1,3.85a1.75,1.75,0,0,0,.19.46c.1.1.24.05.43-.15l.07.07c-.42.43-.84.87-1.25,1.32l-.07-.06a1.17,1.17,0,0,0,.32-.55,1.73,1.73,0,0,0-.12-.88,55.49,55.49,0,0,1-2.15-9.51l.21-.17a52.13,52.13,0,0,1,8.69,3.64,2.81,2.81,0,0,0,.6.31,1.12,1.12,0,0,0,1.13-.09l.05.08c-.78.48-1.55,1-2.3,1.54l0-.08c.2-.15.26-.28.17-.41a1.32,1.32,0,0,0-.44-.3.16.16,0,0,1-.09,0l-.06,0C22.66,15.52,21.52,15,20.36,14.54Zm-3,2.24c.88-.82,1.79-1.6,2.73-2.33C19,14,17.8,13.58,16.64,13.2,16.83,14.41,17.06,15.61,17.33,16.78Z"/><path class="cls-1" d="M28.52,4.05c.66-.27,1.32-.54,2-.79l0,.09A2.08,2.08,0,0,0,30,3.7a1.8,1.8,0,0,0-.39.63,44.91,44.91,0,0,0-1.64,4.44l1.87,3.76c.15.31.3.48.45.53a1.13,1.13,0,0,0,.73-.17L31,13c-1,.43-1.88.9-2.8,1.41l0-.08c.54-.27.72-.57.53-.92l-.14-.22C28,12,27.36,10.89,26.74,9.75A45.1,45.1,0,0,0,22,8.19a1.52,1.52,0,0,0-1.35.18l-.06-.08Q22,7.36,23.47,6.52l0,.09c-.27.15-.37.3-.29.43s.17.13.39.2c1.34.41,2.64.88,3.9,1.39.41-1.34.89-2.69,1.44-4a1.15,1.15,0,0,0,.1-.24.49.49,0,0,0,0-.21c-.06-.13-.21-.14-.47,0l-.05,0Z"/><path class="cls-1" d="M44.7,5.11c-1.25.1-2.49.26-3.73.47-.44,1.24-.83,2.48-1.17,3.73a2.09,2.09,0,0,0-.08.49c0,.13.17.17.43.12V10c-.56.12-1.12.24-1.68.38l0-.09A1.15,1.15,0,0,0,39,10a1.65,1.65,0,0,0,.36-.79,54.08,54.08,0,0,1,3.22-9l.25,0A53.91,53.91,0,0,1,48,8a4.19,4.19,0,0,0,.33.58,1.11,1.11,0,0,0,1,.53v.09c-.9,0-1.81,0-2.71,0V9.11c.24,0,.36-.1.36-.25a1.26,1.26,0,0,0-.21-.49.18.18,0,0,1-.06-.08s0-.06,0-.06Q45.75,6.65,44.7,5.11Zm-3.65.19c1.15-.18,2.3-.33,3.45-.43Q43.5,3.39,42.37,2C41.89,3.07,41.45,4.18,41.05,5.3Z"/><path class="cls-1" d="M49.61,9.15V9.06a1.09,1.09,0,0,0,.71-.14.75.75,0,0,0,.19-.55l.3-7.48a.85.85,0,0,0-.13-.58c-.1-.12-.4-.2-.91-.22V0C51,0,52.3.09,53.56.21V.3a2.32,2.32,0,0,0-.74,0,.58.58,0,0,0-.3.19,1.32,1.32,0,0,0-.1.53c-.16,2.13-.31,4.27-.47,6.41a1.3,1.3,0,0,0,.43,1.2,3.63,3.63,0,0,0,1.7.51l1.41.19a2.49,2.49,0,0,0,1.57-.13,2.05,2.05,0,0,0,.84-1.36l.12,0c-.15.72-.3,1.44-.46,2.16A43.3,43.3,0,0,0,49.61,9.15Z"/><path class="cls-1" d="M67.82,13.74l-.18-.09a56.52,56.52,0,0,0-.26-7.78,56.79,56.79,0,0,0-5.64,5.41l-.17-.06a55.94,55.94,0,0,0-1.85-8.94,2.71,2.71,0,0,0-.41-.87A1.38,1.38,0,0,0,58.46,1V.88c1.1.21,2.19.45,3.28.72l0,.09c-.31-.08-.49,0-.53.11a1.14,1.14,0,0,0,.05.44,57.84,57.84,0,0,1,1.44,7.33,59.3,59.3,0,0,1,4.6-4.33c0-.2,0-.4-.07-.6a2.33,2.33,0,0,0-.36-1.13A1.44,1.44,0,0,0,66.16,3l0-.09c1,.37,2.07.77,3.09,1.21l0,.08c-.3-.12-.48-.1-.55.06a1.45,1.45,0,0,0,0,.47A56.93,56.93,0,0,1,69,12.23a56.28,56.28,0,0,1,6.4-4.17l0,0,.29-.19c.08-.13,0-.29-.31-.46l0-.09c.59.37,1.19.74,1.77,1.13l0,.08a1.47,1.47,0,0,0-1.62,0A56.09,56.09,0,0,0,67.82,13.74Z"/><path class="cls-1" d="M79.64,16.56c-1-.87-2-1.69-3-2.47-1.23.53-2.43,1.09-3.59,1.7a1.77,1.77,0,0,0-.41.27c-.08.12,0,.25.21.4l-.06.07c-.48-.33-1-.65-1.47-1l0-.08a1.18,1.18,0,0,0,.58.21,1.68,1.68,0,0,0,.83-.28,52.88,52.88,0,0,1,8.94-3.79l.2.17a55.47,55.47,0,0,1-2,9.25,2.51,2.51,0,0,0-.2.65A1.19,1.19,0,0,0,80,22.82l-.07.06c-.64-.72-1.29-1.41-2-2.07l.07-.06c.18.18.33.21.44.1a1.21,1.21,0,0,0,.21-.49.22.22,0,0,1,0-.1s0-.05,0-.06C79.08,19,79.38,17.79,79.64,16.56ZM76.91,14c1,.72,1.87,1.48,2.77,2.28.25-1.18.46-2.38.63-3.59C79.15,13.06,78,13.5,76.91,14Z"/><path class="cls-1" d="M91.72,23.37c.41.67.81,1.34,1.2,2l-.08,0a2.46,2.46,0,0,0-.48-.58,2.07,2.07,0,0,0-.7-.34,41.77,41.77,0,0,0-4.8-1.16l-3.41,2.46c-.28.2-.42.38-.44.54a1.34,1.34,0,0,0,.32.75l-.08.05c-.63-.94-1.29-1.84-2-2.71l.07-.06c.37.52.71.66,1,.42l.19-.18,3.07-2.38a46.93,46.93,0,0,0,.63-5.11,1.63,1.63,0,0,0-.44-1.33l.07-.07c.8.86,1.58,1.75,2.33,2.68l-.08.06c-.21-.26-.37-.33-.49-.24a.77.77,0,0,0-.12.44c-.15,1.43-.36,2.83-.62,4.21a42.31,42.31,0,0,1,4.35,1,.66.66,0,0,0,.26.08.37.37,0,0,0,.22,0c.11-.07.09-.24-.07-.49l0-.06Z"/><path class="cls-1" d="M96.47,33.51c-.27.39-.54.76-.82,1.14l-.06-.13a6,6,0,0,0,.14-.71,4.65,4.65,0,0,0,0-1.54,6.77,6.77,0,0,0-.5-1.75,5,5,0,0,0-1.58-2.17,1.48,1.48,0,0,0-1.57-.25,1.19,1.19,0,0,0-.59.79,5,5,0,0,0,.14,1.93,26.89,26.89,0,0,1,.58,3.25A5.15,5.15,0,0,1,92,35.92a1.72,1.72,0,0,1-1.14,1.22,2,2,0,0,1-.72.09,2,2,0,0,1-.76-.22,4.18,4.18,0,0,1-.78-.49,4,4,0,0,1-.65-.65,7.53,7.53,0,0,1-.67-1.16c-.27-.53-.45-.88-.52-1.05q-.72-1.65-1.56-3.18l2.33-1.3.07.13a2.08,2.08,0,0,0-1.2,1.7,6.59,6.59,0,0,0,.72,2.75A5.92,5.92,0,0,0,88.67,36a1.61,1.61,0,0,0,1.57.45,1.08,1.08,0,0,0,.65-.59,3,3,0,0,0,.22-1.1,12.27,12.27,0,0,0-.3-2.4c-.22-1.15-.38-2-.41-2.45a3.1,3.1,0,0,1,.22-1.42,1.76,1.76,0,0,1,.78-1,2,2,0,0,1,2.15.27,6.14,6.14,0,0,1,2.07,2.78,12.84,12.84,0,0,1,.57,1.72c.17.63.25,1,.26,1.07A.24.24,0,0,0,96.47,33.51Z"/><path class="cls-1" d="M11.9,67.94c-.24.37-.47.74-.7,1.11L11.14,69s0-.21.08-.62a4.53,4.53,0,0,0,0-1.27,5.65,5.65,0,0,0-.46-1.39A4.3,4.3,0,0,0,9.37,63.9a1.61,1.61,0,0,0-1.52-.3,1.22,1.22,0,0,0-.67.7,3.94,3.94,0,0,0,0,1.84c.31,1.49.55,2.49.66,3a5.86,5.86,0,0,1,0,1.78A1.82,1.82,0,0,1,7,72.37a1.73,1.73,0,0,1-.69.24,1.84,1.84,0,0,1-.79-.07,3.54,3.54,0,0,1-.87-.4,3.81,3.81,0,0,1-.78-.64A7.52,7.52,0,0,1,3,70.22c-.34-.61-.56-1-.65-1.23-.59-1.31-1.14-2.66-1.64-4L3.2,64l.06.16a1.88,1.88,0,0,0-1.35,1.66,7.07,7.07,0,0,0,.82,3.28,5.85,5.85,0,0,0,1.84,2.49,1.52,1.52,0,0,0,1.65.24,1.09,1.09,0,0,0,.53-.69,3.05,3.05,0,0,0,.07-1.12,22.62,22.62,0,0,0-.47-2.35A12.63,12.63,0,0,1,6,65.25a2.65,2.65,0,0,1,.35-1.38,1.76,1.76,0,0,1,.9-.82,2.17,2.17,0,0,1,2.06.4,5.52,5.52,0,0,1,1.78,2.29c.18.4.36.84.53,1.32s.26.75.27.81A.14.14,0,0,0,11.9,67.94Z"/><path class="cls-1" d="M19.38,77.32l-1.19.38-.08-.09a1.17,1.17,0,0,0,.21-.16.19.19,0,0,0,0-.23,1.49,1.49,0,0,0-.27-.34c-.72-.77-1.42-1.57-2.09-2.41l-6.08,5a1.23,1.23,0,0,0-.44.51.58.58,0,0,0,0,.41,3.64,3.64,0,0,0,.41.57L9.87,81q-1.3-1.53-2.49-3.21l.08-.05a2,2,0,0,0,.71.67.76.76,0,0,0,.61-.23l6.34-4.84c-.62-.83-1.22-1.69-1.78-2.59a4.33,4.33,0,0,0-.37-.51.2.2,0,0,0-.25,0,.66.66,0,0,0-.17.19l-.07-.11c.2-.37.41-.74.63-1.1l.06.11a.64.64,0,0,0-.07.4,2.43,2.43,0,0,0,.3.58,40.86,40.86,0,0,0,5,6.47,2.48,2.48,0,0,0,.5.45.42.42,0,0,0,.41,0Z"/><path class="cls-1" d="M20.33,85.14c-1-.78-2-1.6-3-2.47-1.27.41-2.57.78-3.89,1.09a1.49,1.49,0,0,0-.49.18c-.09.09,0,.26.2.48l-.06.07c-.52-.51-1-1-1.52-1.55l.06-.07a1.8,1.8,0,0,0,.61.44,1.68,1.68,0,0,0,.94,0,50.89,50.89,0,0,0,9.12-3.06l.17.13a54.67,54.67,0,0,0-1.07,9.23,3.38,3.38,0,0,0,0,.7,1.32,1.32,0,0,0,.73,1.07l0,.08c-1-.57-1.87-1.17-2.78-1.8l.05-.08c.25.17.42.19.5.07a1.15,1.15,0,0,0,.11-.54.16.16,0,0,1,0-.1s0-.07,0-.07C20.06,87.64,20.17,86.38,20.33,85.14Zm-2.72-2.58c.89.8,1.8,1.55,2.74,2.27.17-1.19.37-2.36.61-3.52C19.87,81.77,18.75,82.18,17.61,82.56Z"/><path class="cls-1" d="M32.45,86.38c.53.22,1.07.43,1.61.63l0,.09a1.43,1.43,0,0,0-.55-.08,2.06,2.06,0,0,0-.61.23,41.7,41.7,0,0,1-4.1,1.94L26.93,93a.85.85,0,0,0-.11.69,1.62,1.62,0,0,0,.73.51l0,.08c-1.14-.51-2.27-1.06-3.37-1.66l0-.08c.62.37,1,.36,1.21,0l.11-.24c.59-1.15,1.19-2.3,1.79-3.44a46.29,46.29,0,0,1-.79-4.71,1.27,1.27,0,0,0-.56-1L26,83c.78.49,1.56.95,2.36,1.39l0,.08c-.23-.12-.38-.12-.45,0a.73.73,0,0,0,0,.41c.2,1.27.45,2.55.76,3.83a40.52,40.52,0,0,0,3.71-1.72.64.64,0,0,0,.22-.11c.09-.06.14-.1.15-.13s0-.24-.23-.32l-.05,0Z"/><path class="cls-1" d="M44.72,94.36c-1.24-.1-2.48-.25-3.71-.45-.83,1-1.7,2-2.62,3a1.66,1.66,0,0,0-.31.41c0,.13.11.23.41.29l0,.09c-.67-.13-1.35-.28-2-.44l0-.09a1.26,1.26,0,0,0,1.47-.52,55.19,55.19,0,0,0,5.89-7.51l.2,0a54.27,54.27,0,0,0,3.9,8.35,3.15,3.15,0,0,0,.37.59,1.29,1.29,0,0,0,1.16.52v.1c-1.09,0-2.17,0-3.25-.06v-.1q.44,0,.45-.21a1.13,1.13,0,0,0-.2-.5l-.06-.09a.32.32,0,0,0,0-.06C45.79,96.62,45.24,95.49,44.72,94.36Zm-3.55-.69c1.13.19,2.27.33,3.41.43-.48-1.09-.91-2.18-1.31-3.28Q42.28,92.28,41.17,93.67Z"/><path class="cls-1" d="M49.79,98.74v-.09a1.33,1.33,0,0,0,.83-.19.65.65,0,0,0,.17-.56q-.13-3.74-.29-7.48a1,1,0,0,0-.15-.57c-.09-.11-.34-.17-.75-.17v-.09c1,0,2-.07,3-.16v.09a1.56,1.56,0,0,0-.59.13.48.48,0,0,0-.21.22,1.7,1.7,0,0,0,0,.54l.45,6.41A1.21,1.21,0,0,0,53,97.94a4.18,4.18,0,0,0,2.07.14l1.67-.23a3,3,0,0,0,1.69-.69,1.82,1.82,0,0,0,.31-1.59l.13,0,.45,2.15A52.43,52.43,0,0,1,49.79,98.74Z"/><path class="cls-1" d="M71.78,93.64l-.22.1A57.66,57.66,0,0,1,65.4,88.8a59.46,59.46,0,0,1-1,7.75l-.21.06a58.18,58.18,0,0,1-6.16-6.86,3,3,0,0,0-.64-.65,1,1,0,0,0-.78-.12l0-.09c.88-.16,1.77-.35,2.64-.57l0,.09c-.25.07-.36.17-.33.32a1.44,1.44,0,0,0,.23.38,56.51,56.51,0,0,0,5.05,5.5,60.2,60.2,0,0,0,.7-6.21L64.5,88a2.65,2.65,0,0,0-.92-.65,1.09,1.09,0,0,0-.69,0l0-.09c.85-.29,1.68-.61,2.51-1l0,.09c-.24.1-.33.23-.26.39a1.63,1.63,0,0,0,.32.33,57,57,0,0,0,5.84,4.65A56.73,56.73,0,0,0,71,84.25v0l-.06-.33c-.08-.13-.24-.12-.48,0l0-.08c.49-.28,1-.58,1.45-.89l0,.08a1.28,1.28,0,0,0-.46,1.35A60.76,60.76,0,0,1,71.78,93.64Z"/><path class="cls-1" d="M79.73,83.16c-1,.85-2,1.65-3,2.41.15,1.32.26,2.66.32,4a1.84,1.84,0,0,0,.07.51q.12.16.51-.09l0,.07c-.58.4-1.18.78-1.77,1.14l0-.08a1.67,1.67,0,0,0,.53-.48,1.82,1.82,0,0,0,.15-.93,55.82,55.82,0,0,0-1.2-9.51l.16-.13A51.1,51.1,0,0,0,84.35,83a3,3,0,0,0,.7.13,1.4,1.4,0,0,0,1.22-.52l.07.06q-1.17,1.26-2.4,2.43L83.87,85q.34-.32.18-.48a1,1,0,0,0-.51-.21.18.18,0,0,1-.1,0l-.07,0C82.14,83.93,80.92,83.56,79.73,83.16Zm-3.07,2.13c1-.7,1.87-1.43,2.77-2.21-1.13-.4-2.24-.84-3.32-1.31C76.33,82.93,76.52,84.1,76.66,85.29Z"/><path class="cls-1" d="M83.7,71.12c.35-.53.68-1.07,1-1.61l.08,0a1.7,1.7,0,0,0-.2.57,1.67,1.67,0,0,0,.08.69q.58,2.25,1,4.62c1.12.84,2.24,1.68,3.35,2.53a.83.83,0,0,0,.67.23,1.92,1.92,0,0,0,.67-.67l.08,0c-.78,1.11-1.6,2.17-2.44,3.19l-.08-.06c.51-.57.6-1,.29-1.24L88,79.33l-3-2.45a39.29,39.29,0,0,1-4.86,0,1.31,1.31,0,0,0-1.14.36l-.06-.06c.66-.68,1.3-1.39,1.91-2.12l.08.06c-.18.2-.21.36-.09.46a.7.7,0,0,0,.41.08c1.31,0,2.64,0,4-.1-.22-1.42-.5-2.81-.84-4.16a.74.74,0,0,0-.06-.25.44.44,0,0,0-.1-.18c-.11-.08-.24,0-.37.2l0,0Z"/><path class="cls-1" d="M87.94,63.17l1.3-.19,0,.11-.53.35a4.67,4.67,0,0,0-1,.88A5.49,5.49,0,0,0,87,65.58a4.13,4.13,0,0,0-.47,2.17,1.61,1.61,0,0,0,.76,1.33,1.18,1.18,0,0,0,1,.08A3.51,3.51,0,0,0,89.57,68c.92-1.17,1.54-2,1.9-2.48a5.77,5.77,0,0,1,1.36-1.22,1.74,1.74,0,0,1,1.66-.26,1.61,1.61,0,0,1,.61.38,2,2,0,0,1,.45.69,4.3,4.3,0,0,1,.24,1,4.09,4.09,0,0,1,0,1.05,7.68,7.68,0,0,1-.42,1.52c-.25.67-.43,1.09-.52,1.3-.62,1.28-1.27,2.53-2,3.73l-2.29-1.36.07-.13a1.83,1.83,0,0,0,2.1,0,6.53,6.53,0,0,0,1.94-2.65,6.25,6.25,0,0,0,.73-3.08c-.08-.8-.37-1.29-.86-1.47a1,1,0,0,0-.88,0,3.34,3.34,0,0,0-.9.7,23.56,23.56,0,0,0-1.5,1.91,12.38,12.38,0,0,1-1.61,1.81,2.49,2.49,0,0,1-1.25.56,1.76,1.76,0,0,1-1.2-.18,2.23,2.23,0,0,1-1-1.81,5.26,5.26,0,0,1,.58-2.79A11.36,11.36,0,0,1,87.44,64c.27-.46.42-.71.46-.76A.43.43,0,0,0,87.94,63.17Z"/><circle class="cls-1" cx="1.97" cy="49.23" r="1.97"/><circle class="cls-1" cx="95.76" cy="49.23" r="1.97"/></g></g></svg>