<svg xmlns="http://www.w3.org/2000/svg" xmlns:xlink="http://www.w3.org/1999/xlink" viewBox="0 0 263.8 128.68"><defs><style>.cls-1{opacity:0.63;}.cls-10,.cls-11,.cls-12,.cls-13,.cls-14,.cls-15,.cls-16,.cls-17,.cls-18,.cls-19,.cls-2,.cls-20,.cls-21,.cls-22,.cls-23,.cls-24,.cls-25,.cls-26,.cls-27,.cls-28,.cls-29,.cls-30,.cls-31,.cls-32,.cls-4,.cls-5,.cls-6,.cls-7,.cls-8,.cls-9{opacity:0.76;}.cls-10,.cls-11,.cls-12,.cls-13,.cls-14,.cls-15,.cls-16,.cls-17,.cls-18,.cls-19,.cls-20,.cls-21,.cls-22,.cls-23,.cls-24,.cls-25,.cls-26,.cls-27,.cls-28,.cls-29,.cls-3,.cls-30,.cls-31,.cls-32,.cls-4,.cls-5,.cls-6,.cls-7,.cls-8,.cls-9{fill:none;stroke:#8f8c80;stroke-miterlimit:10;}.cls-3,.cls-4{stroke-width:1.16px;}.cls-5{stroke-width:1.46px;}.cls-6{stroke-width:1.3px;}.cls-7{stroke-width:1.23px;}.cls-8{stroke-width:1.1px;}.cls-9{stroke-width:1.17px;}.cls-10{stroke-width:0.77px;}.cls-11{stroke-width:1.31px;}.cls-12{stroke-width:1.34px;}.cls-13{stroke-width:0.79px;}.cls-14{stroke-width:0.67px;}.cls-15{stroke-width:0.97px;}.cls-16{stroke-width:0.61px;}.cls-17{stroke-width:0.96px;}.cls-18{stroke-width:1.03px;}.cls-19{stroke-width:0.57px;}.cls-20{stroke-width:0.61px;}.cls-21{stroke-width:0.66px;}.cls-22{stroke-width:0.65px;}.cls-23{stroke-width:1.06px;}.cls-24{stroke-width:0.92px;}.cls-25{stroke-width:1.02px;}.cls-26{stroke-width:1.2px;}.cls-27{stroke-width:0.97px;}.cls-28{stroke-width:0.83px;}.cls-29{stroke-width:1.29px;}.cls-30{stroke-width:1.04px;}.cls-31{stroke-width:1.26px;}.cls-32{stroke-width:1.22px;}.cls-33{opacity:0.71;fill:url(#未命名漸層_88);}.cls-34,.cls-38{font-size:23px;fill:#49541a;font-family:Amiri-Regular, Amiri;}.cls-34{letter-spacing:0.29em;}.cls-35{letter-spacing:0.3em;}.cls-36{letter-spacing:0.29em;}.cls-37,.cls-38{letter-spacing:0.3em;}.cls-39{letter-spacing:0.3em;}.cls-40{letter-spacing:0.29em;}.cls-41{letter-spacing:0.29em;}.cls-42{letter-spacing:0.3em;}</style><linearGradient id="未命名漸層_88" x1="101.78" y1="74.95" x2="15.05" y2="71.83" gradientUnits="userSpaceOnUse"><stop offset="0" stop-color="#c7987e"/><stop offset="0.21" stop-color="#c89a81" stop-opacity="0.98"/><stop offset="0.41" stop-color="#cda089" stop-opacity="0.9"/><stop offset="0.61" stop-color="#d4a998" stop-opacity="0.78"/><stop offset="0.69" stop-color="#d8afa0" stop-opacity="0.71"/><stop offset="1" stop-color="#d6b4a1" stop-opacity="0.71"/></linearGradient></defs><g id="圖層_2" data-name="圖層 2"><g id="圖層_1-2" data-name="圖層 1"><g class="cls-1"><g class="cls-2"><path class="cls-3" d="M67.05,118.9C63.06,97.15,51,51.3,35.82,40l-5.39-8.32s-9.75-8.76-11.18-9.82"/><path class="cls-3" d="M30.72,31.4c.24.28-.24-9.26-1.32-11.58"/><path class="cls-3" d="M19.47,22c.65,1.06-2.7-.36-6.13,1.92"/><line class="cls-3" x1="19.47" y1="22.02" x2="14.15" y2="10.4"/><path class="cls-3" d="M35.82,40s-3.66,1-5.21.1"/></g><path class="cls-4" d="M43.86,61.73S37.53,63,35.75,64.31"/><path class="cls-4" d="M41.2,60.34a55.23,55.23,0,0,0-2-5.34"/><g class="cls-2"><path class="cls-3" d="M87.71,117.31C80,94.92,54.45,63.31,33.62,56.87c-.91-.68-15.77-9.71-25.32-9.41"/><path class="cls-3" d="M15.68,48.7s-2.21-8.63-5.08-10.29"/><path class="cls-3" d="M17.6,49.36s-4.32,6.79-7.29,9"/></g><g class="cls-2"><path class="cls-3" d="M87,128.26c-9.67-9-26.29-35.5-34.3-63.71-5.12-18-6.72-36.75-.75-52"/><path class="cls-3" d="M52.72,64.55S56.17,63.42,58,52.7"/><path class="cls-3" d="M49.05,47.4s3.51-2.49,4.7-5"/><path class="cls-3" d="M48.4,38.41s8.44-10.23,9.17-11.93"/><path class="cls-3" d="M48.17,32.81s-7.34-2.69-7.42-3.09"/><path class="cls-3" d="M49.45,21.16s-4.79.18-5.05-.24"/></g><path class="cls-5" d="M4.32,46.23c2.65.3,5.23.55,5.12,1.67S6.51,49.66,3.79,51C1.33,52.16.63,50,.74,48.91A3,3,0,0,1,4.32,46.23Z"/><path class="cls-6" d="M8.48,40.82c.66,2.45,1.32,6,.5,6.35s-3.31-2.34-4-4.78,0-3.55.82-3.94S7.82,38.38,8.48,40.82Z"/><path class="cls-7" d="M13.18,19.06c.64,2.12,1.2,5.5.37,5.92s-3.25-2.09-3.89-4.2.05-3.16.88-3.58S12.55,17,13.18,19.06Z"/><path class="cls-8" d="M9.28,25.79c2.32-.65,3.76-2.35,4.16-1.71s-.86,3.08-2.5,4.45S8.41,29.63,8,29A2.18,2.18,0,0,1,9.28,25.79Z"/><path class="cls-9" d="M42.52,64.86c2.37-.82,5-.81,5.09-.09s-2.3,2.35-4.67,3.17-3.17.31-3.29-.41S40.15,65.68,42.52,64.86Z"/><path class="cls-10" d="M57.51,23.17c.18,1.48,0,3.23-.56,3.39s-1.43-1.28-1.6-2.77.31-2.07.82-2.23S57.34,21.68,57.51,23.17Z"/><path class="cls-11" d="M28.46,57.1c2.35-.46,5.54-1,5.55,0s-3.21,3.64-5.57,4.1-3-.41-3.05-1.37S26.11,57.56,28.46,57.1Z"/><path class="cls-12" d="M55,8.14c-1.4,1.73-2.6,3.85-3.66,3.75S49.85,9.66,49.84,7c0-2.21-.14-2.55,2.84-2.61C55.26,4.29,56.54,6.23,55,8.14Z"/><path class="cls-13" d="M49.46,7.71c-.32,2.19.71,2.51.24,3s-1.36.72-2.57-.19c-1-.74-1.43-1.55-.28-3C47.84,6.3,49.66,6.35,49.46,7.71Z"/><path class="cls-14" d="M32.62,64.89c.29.89.35,1.88,1,2.06s1.44-.48,2.2-1.42c.62-.78.79-.88-.82-1.5C33.56,63.48,32.31,63.9,32.62,64.89Z"/><path class="cls-15" d="M56.07,12c-1.5,1-3.35,1.49-3.64.83s1-2.67,2.46-3.64,2.22-.56,2.51.09S57.56,11,56.07,12Z"/><path class="cls-16" d="M42.48,53.08c-.75.93-1.81,1.71-2.12,1.43s.11-1.71.86-2.63,1.27-.9,1.58-.62S43.23,52.16,42.48,53.08Z"/><path class="cls-17" d="M60.94,24.67c-1.2,1.5-2.89,2.78-3.37,2.36s.18-2.72,1.37-4.22,2-1.48,2.52-1.06S62.13,23.17,60.94,24.67Z"/><path class="cls-18" d="M26,46.83c.2,2.16-.11,4.67-.75,4.85s-1.76-2-2-4.15.05-3.28,1.05-3.15C25.78,44.57,25.82,44.67,26,46.83Z"/><path class="cls-18" d="M47.12,57.35c.2,2.17,0,4.95-.67,5.13s-1.84-2.26-2-4.42.05-3.29,1.05-3.16C46.88,55.09,46.92,55.19,47.12,57.35Z"/><path class="cls-19" d="M40.05,50.6c.33.89.39,3.18,0,3.41s-1.34-1.57-1.67-2.46-.27-1.44.38-1.62C39.69,49.68,39.72,49.71,40.05,50.6Z"/><path class="cls-20" d="M49.47,14.34c1-.57,2.8-.76,2.65-1.17a3.51,3.51,0,0,0-3.29-.52c-1,.58-1.42,1.07-1,1.57C48.4,14.93,48.46,14.92,49.47,14.34Z"/><path class="cls-21" d="M34.14,62.51c.66.93,1.7,1.66,2.07,1.31s.18-1.87-.49-2.8-1.18-1.18-1.63-.49C33.46,61.51,33.48,61.58,34.14,62.51Z"/><path class="cls-22" d="M37.54,54.89c.87.37,2,.34,2.29-.2S39.47,53,38.6,52.61s-1.43-.26-1.65.62C36.63,54.47,36.66,54.52,37.54,54.89Z"/><path class="cls-23" d="M42.64,17c1,1.92,1.56,4.36,1,4.77s-2.47-1.17-3.44-3.1-1.11-3.06-.07-3.31C41.6,15,41.68,15.07,42.64,17Z"/><path class="cls-24" d="M61.12,29.21c-1.84.45-3.74-.68-3.77-1.28s2-.57,3.32-1.78c1.51-1.39,2.74-.34,2.44.65C62.69,28.2,63,28.76,61.12,29.21Z"/><path class="cls-18" d="M20.05,52.42c2.05-.56,4.54-.87,4.6-.19s-2.46,2.09-4.43,3.07c-1.82.91-2,0-2.75-.66S18,53,20.05,52.42Z"/><path class="cls-25" d="M17.08,5.51c-.25,2.21-1.68,5.27-2.31,5.3s-.6-3-.35-5.24,1.27-5,1.9-5.06S17.33,3.3,17.08,5.51Z"/><path class="cls-26" d="M9.64,21.12c1.77,2.15,3.31,2.7,2.84,3.53s-2.67.05-4.88,0-3.46-3.12-3-4S8.34,19.53,9.64,21.12Z"/><path class="cls-27" d="M33.83,51.6c.17,2.1-.13,4.53-.71,4.68s-1.6-2-1.76-4.09.28-4.93.87-5.09S33.67,49.49,33.83,51.6Z"/><path class="cls-28" d="M45.4,18.2c-.26,1.76-1,3.67-1.49,3.67s-1-2-.72-3.71,1.17-4,1.7-4S45.66,16.44,45.4,18.2Z"/><path class="cls-12" d="M11.69,4.67c1.32,2.11,2.2,4.88,1.51,5.45S10.07,9.12,8.75,7s-1-3.31-.3-3.88S10.37,2.55,11.69,4.67Z"/><path class="cls-29" d="M29.63,37.88c.57.92,1.41,2.41,1,2.21-.89-.4-3.08.91-3.65,0a2.17,2.17,0,0,1,.31-2.76A1.57,1.57,0,0,1,29.63,37.88Z"/><path class="cls-5" d="M9.39,56.39A1.87,1.87,0,0,1,10.47,59c-.65,1-1.58,1.9-2.6,1.64A1.9,1.9,0,0,1,6.78,58C7.54,55.9,8.37,56.12,9.39,56.39Z"/><path class="cls-5" d="M13,37.89c-1,.71-2.37,1.57-3.47-.11-.59-.91.67-2.68,1.65-3.39a2.68,2.68,0,0,1,3.44.7C15.16,36.05,14,37.17,13,37.89Z"/><path class="cls-30" d="M57.08,52.13A1.87,1.87,0,0,1,58,50a1.2,1.2,0,0,1,1.66.95,3,3,0,0,1-1.25,2.69C57.69,54,57.28,53,57.08,52.13Z"/><path class="cls-5" d="M39.29,32.54a1.68,1.68,0,0,1-2.48-1,2.6,2.6,0,0,1,1.34-2.92,1.83,1.83,0,0,1,2.6,1.09A2.57,2.57,0,0,1,39.29,32.54Z"/><path class="cls-31" d="M56.75,38.64a2.14,2.14,0,0,1-.62,2.64c-.83.68-2.85,1-2.84,0a3.93,3.93,0,0,1,1.09-2.77A1.53,1.53,0,0,1,56.75,38.64Z"/><ellipse class="cls-32" cx="29.07" cy="18.74" rx="1.89" ry="1.57" transform="translate(-2.03 33.86) rotate(-58.74)"/></g><path class="cls-33" d="M17.15,81.41c-.85.49-.69,0-.28-1.61-.48,1.21-.3.35-.23-1.6-.15,1.33-.07,0-.18-1.55,0,.88-.05-.26-.25-1.24.16,0,.1-1.24,0-1.74,0-.23-.23-.4-.59-.17a9.11,9.11,0,0,0,.52-2.58c-.06-.28-.4.1-1.12,1.37.42-1.15.73-2.08,1-2.92s.47-1.58.67-2.37,1.43-5,.6-2.6c1.06-3.47,2.91-6.66.77-3.62,2.14-3,1-1.64-.59,2.63,1.55-4.1,1.81-4.63.07-.39,1.78-4.44,2.79-5.38.68-3.23,2.11-2.15,1.62-1.83-.42,2.19,2-4,2.66-4.31.68-2.75,2-1.56,1.88-1.48-.23,1.12,2.11-2.6,2.3-2.66.48-1.69,1.82-1,1.94-.91.41-.68,1.53-.23,1.49-.31.65-1.24.84.93.69.81.39-.78.31,1.58-.05,1.3.4-1.22-.45,2.51-.76,2,.88-1.8-1.59,3.73-.6,1.44,1-1.55-1.22,2.44.63-1.39,1-2a2.73,2.73,0,0,1,1.09-1.14c.75-.5,1.55-2,2.39-3s1.51-1.63,2.31-2.41,1.63-1.52,2.5-2.23,1.76-1.39.94-1.1c2.66-1.57,9.71-5.3,11.91-6.44,0,.32,1.07,0,2.21-.37s2.28-.61,3.45-.84a42,42,0,0,1,30,5.26c1.08.65,2.14,1.36,3.16,2.11,1,.14,2,1.57,3,2.39,1,1.44,1.87.31,2.75,2.65a7,7,0,0,1,2.5,2.91c.79.41,1.54,4,2.24,3.13a5.08,5.08,0,0,0,1,2.6c.33.33.64.35.94.76a2.86,2.86,0,0,1,.87,1.76c.27,1.25.53,1.6.78,1.81.34,1.64.64,1,.93,2.49.14.82.27,1,.37,1,.16.37.28.61.18.38.33,1.58.44,2,.16.18.49,2.75.58,3.21.15.16.66,3.89.77,4.16.47.15.5,5.07.59,5.87,1,5.65-.26,2-.2,2.63,1,10.32-1.1-6.16-1.08-5.31-.4.58-.67-4.57-.69-3.89-.26.28-.48-2.84-.52-2.18-.27.34-.36-1.19-.44-.61-.42.88-.19-.31-.29.29-.41,1.17a10.54,10.54,0,0,1-.39,1.27,13.81,13.81,0,0,0-.47,2.37c-.17.93-.36,1.81-.53,2.43s-.44,1.14-.39,1c-.51.79-.75,1.31,0,1a125.71,125.71,0,0,0-6.86,11.38c-.14-.45-.68.2-1.28.89-.38.42-.81.89-1.26,1.34s-.89.91-1.36,1.35c-.92-.33-1.89,1.78-2.9,2.5-1,.12-2,1.18-3.14,2.24-1.08,2-2.2,2.31-3.36,2a6.93,6.93,0,0,0-3.56,1.65c-1.23.5-2.48,1-3.76,1.33a39.29,39.29,0,0,1-4,1c-1.15.23-2.3.41-3.44.54s-2.29.22-3.42.26a14.23,14.23,0,0,1-3.39,0c-1.12-.28-2.23,1.1-3.34-.3-1.1.88-2.19.46-3.27-.55-1.08.3-2.15-1.36-3.2-.8a5.4,5.4,0,0,0-1.57-.65c-.54-.23-1.09-.57-1.54-.4-.62-.51-1.74-1.22-1.77-.72-.93-.92-2.48-1.25-1.73-.8-1.46-.61-2.67-.42-1.7-.51-1.47-.21-1.95-.23-1.65-1.31-.7.77-1,.45-1.6-1.16.14,1.24-.39.42-1.56-1,.51,1.1-.52-.14-1.51-1,.13.17-.95-.88-1.46-1.34a3.84,3.84,0,0,0-1.4-1.51,4.41,4.41,0,0,1-1.34-1.14,6.41,6.41,0,0,0-2.5-2.91c-.79-1-1.54-2.05-2.24-3.14q-.84-1.29-1.59-2.67c-.49-.91-1-1.84-1.39-2.8s-1.42-2.93-1.2-2.93c-.83-1.67-2-3.62-1-3.06C16.62,83,16.41,82.46,17.15,81.41Z"/><text class="cls-34" transform="translate(122.82 65.91) scale(1.07 1)">S<tspan class="cls-35" x="18.04" y="0">t</tspan><tspan class="cls-36" x="31.93" y="0">a</tspan><tspan class="cls-37" x="48.26" y="0">y</tspan></text><text class="cls-38" transform="translate(138.34 86.66) scale(1.07 1)">A<tspan class="cls-39" x="20.98" y="0">l</tspan><tspan class="cls-40" x="33.5" y="0">w</tspan><tspan class="cls-41" x="56.41" y="0">a</tspan><tspan class="cls-42" x="72.75" y="0">y</tspan><tspan class="cls-35" x="90.07" y="0">s.</tspan></text></g></g></svg>