<svg xmlns="http://www.w3.org/2000/svg" xmlns:xlink="http://www.w3.org/1999/xlink" viewBox="0 0 254.34 175.58"><defs><style>.cls-1,.cls-10,.cls-11,.cls-12,.cls-13,.cls-14,.cls-15,.cls-16,.cls-17,.cls-18,.cls-19,.cls-20,.cls-21,.cls-22,.cls-23,.cls-24,.cls-25,.cls-26,.cls-27,.cls-28,.cls-29,.cls-3,.cls-30,.cls-31,.cls-4,.cls-5,.cls-6,.cls-7,.cls-8,.cls-9{opacity:0.76;}.cls-10,.cls-11,.cls-12,.cls-13,.cls-14,.cls-15,.cls-16,.cls-17,.cls-18,.cls-19,.cls-2,.cls-20,.cls-21,.cls-22,.cls-23,.cls-24,.cls-25,.cls-26,.cls-27,.cls-28,.cls-29,.cls-3,.cls-30,.cls-31,.cls-4,.cls-5,.cls-6,.cls-7,.cls-8,.cls-9{fill:none;stroke:#a99380;stroke-miterlimit:10;}.cls-2,.cls-3{stroke-width:1.16px;}.cls-4{stroke-width:1.46px;}.cls-5{stroke-width:1.3px;}.cls-6{stroke-width:1.23px;}.cls-7{stroke-width:1.1px;}.cls-8{stroke-width:1.17px;}.cls-9{stroke-width:0.77px;}.cls-10{stroke-width:1.31px;}.cls-11{stroke-width:1.34px;}.cls-12{stroke-width:0.79px;}.cls-13{stroke-width:0.67px;}.cls-14{stroke-width:0.97px;}.cls-15{stroke-width:0.61px;}.cls-16{stroke-width:0.96px;}.cls-17{stroke-width:1.03px;}.cls-18{stroke-width:0.57px;}.cls-19{stroke-width:0.61px;}.cls-20{stroke-width:0.66px;}.cls-21{stroke-width:0.65px;}.cls-22{stroke-width:1.06px;}.cls-23{stroke-width:0.92px;}.cls-24{stroke-width:1.02px;}.cls-25{stroke-width:1.2px;}.cls-26{stroke-width:0.97px;}.cls-27{stroke-width:0.83px;}.cls-28{stroke-width:1.29px;}.cls-29{stroke-width:1.04px;}.cls-30{stroke-width:1.26px;}.cls-31{stroke-width:1.22px;}.cls-32{opacity:0.71;fill:url(#未命名漸層_88);}.cls-33,.cls-37{font-size:23px;fill:#4e5025;font-family:Amiri-Regular, Amiri;}.cls-33{letter-spacing:0.29em;}.cls-34,.cls-42{letter-spacing:0.3em;}.cls-35{letter-spacing:0.29em;}.cls-36,.cls-37{letter-spacing:0.3em;}.cls-38{letter-spacing:0.3em;}.cls-39{letter-spacing:0.29em;}.cls-40{letter-spacing:0.29em;}.cls-41{letter-spacing:0.3em;}.cls-42{fill:#49541a;}</style><linearGradient id="未命名漸層_88" x1="164.82" y1="74.13" x2="46.58" y2="69.87" gradientUnits="userSpaceOnUse"><stop offset="0" stop-color="#c7987e"/><stop offset="0.21" stop-color="#c89a81" stop-opacity="0.98"/><stop offset="0.41" stop-color="#cda089" stop-opacity="0.9"/><stop offset="0.61" stop-color="#d4a998" stop-opacity="0.78"/><stop offset="0.69" stop-color="#d8afa0" stop-opacity="0.71"/><stop offset="1" stop-color="#d6b4a1" stop-opacity="0.71"/></linearGradient></defs><g id="圖層_2" data-name="圖層 2"><g id="圖層_1-2" data-name="圖層 1"><g class="cls-1"><path class="cls-2" d="M60.47,123c-2-22-9.84-68.78-23.95-81.41L31.9,32.82S23,23.22,21.65,22" transform="translate(56.34)"/><path class="cls-2" d="M32.21,32.58c.22.3.6-9.24-.26-11.66" transform="translate(56.34)"/><path class="cls-2" d="M21.86,22.22c.55,1.11-2.66-.6-6.28,1.35" transform="translate(56.34)"/><line class="cls-2" x1="78.2" y1="22.22" x2="73.96" y2="10.16"/><path class="cls-2" d="M36.52,41.6s-3.74.64-5.21-.38" transform="translate(56.34)"/></g><path class="cls-3" d="M42.56,64s-6.42.64-8.31,1.83" transform="translate(56.34)"/><path class="cls-3" d="M40,62.35a55.63,55.63,0,0,0-1.49-5.5" transform="translate(56.34)"/><g class="cls-1"><path class="cls-2" d="M81.19,123.29C75.53,100.3,53,66.51,32.79,58.2,32,57.44,18,47.1,8.44,46.54" transform="translate(56.34)"/><path class="cls-2" d="M15.67,48.44s-1.42-8.79-4.13-10.71" transform="translate(56.34)"/><path class="cls-2" d="M17.52,49.28s-4.92,6.37-8.07,8.3" transform="translate(56.34)"/></g><g class="cls-1"><path class="cls-2" d="M79.51,134.13c-8.82-9.8-23-37.73-28.39-66.55-3.46-18.42-3.36-37.2,4-51.85" transform="translate(56.34)"/><path class="cls-2" d="M51.12,67.58s3.54-.81,6.32-11.32" transform="translate(56.34)"/><path class="cls-2" d="M49,50.17s3.72-2.16,5.14-4.58" transform="translate(56.34)"/><path class="cls-2" d="M49.19,41.16s9.33-9.43,10.21-11" transform="translate(56.34)"/><path class="cls-2" d="M49.46,35.56s-7.06-3.35-7.11-3.75" transform="translate(56.34)"/><path class="cls-2" d="M51.79,24.07s-4.79-.25-5-.69" transform="translate(56.34)"/></g><path class="cls-4" d="M4.58,45c2.61.53,5.15,1,4.95,2.12s-3.08,1.49-5.91,2.55C1.07,50.59.56,48.4.77,47.3A3,3,0,0,1,4.58,45Z" transform="translate(56.34)"/><path class="cls-5" d="M9.21,40c.43,2.49.78,6-.07,6.36s-3.09-2.62-3.53-5.12.33-3.53,1.18-3.84S8.78,37.45,9.21,40Z" transform="translate(56.34)"/><path class="cls-6" d="M15.87,18.7c.44,2.16.69,5.59-.17,5.93s-3-2.38-3.49-4.54.33-3.14,1.19-3.48S15.43,16.54,15.87,18.7Z" transform="translate(56.34)"/><path class="cls-7" d="M11.37,25.05c2.37-.44,4-2,4.3-1.33s-1.14,3-2.89,4.21-2.62.86-3,.19A2.19,2.19,0,0,1,11.37,25.05Z" transform="translate(56.34)"/><path class="cls-8" d="M40.94,67c2.43-.61,5-.36,5.07.37s-2.5,2.13-4.94,2.74-3.18,0-3.23-.72S38.5,67.57,40.94,67Z" transform="translate(56.34)"/><path class="cls-9" d="M59.64,26.8c0,1.5-.34,3.22-.87,3.33s-1.31-1.4-1.34-2.9.49-2,1-2.15S59.61,25.31,59.64,26.8Z" transform="translate(56.34)"/><path class="cls-10" d="M27.64,58c2.38-.25,5.6-.48,5.52.48S29.64,61.78,27.25,62s-3-.69-2.92-1.64S25.25,58.21,27.64,58Z" transform="translate(56.34)"/><path class="cls-11" d="M58.5,11.61c-1.55,1.6-2.93,3.61-4,3.4s-1.28-2.35-1-5c.2-2.2.1-2.55,3.06-2.35C59.1,7.8,60.21,9.85,58.5,11.61Z" transform="translate(56.34)"/><path class="cls-12" d="M53,10.68c-.52,2.16.47,2.57,0,3s-1.41.58-2.54-.43c-.92-.82-1.28-1.68,0-3C51.54,9.13,53.35,9.34,53,10.68Z" transform="translate(56.34)"/><path class="cls-13" d="M31.08,66.1c.2.92.17,1.91.76,2.14s1.48-.34,2.32-1.22c.69-.72.87-.8-.68-1.57C32.13,64.78,30.85,65.09,31.08,66.1Z" transform="translate(56.34)"/><path class="cls-14" d="M59.22,15.52c-1.58.83-3.48,1.18-3.7.5s1.21-2.57,2.78-3.4,2.26-.36,2.49.32S60.79,14.69,59.22,15.52Z" transform="translate(56.34)"/><path class="cls-15" d="M42,55.24c-.83.85-2,1.53-2.24,1.23s.26-1.69,1.09-2.55,1.36-.78,1.63-.47S42.79,54.38,42,55.24Z" transform="translate(56.34)"/><path class="cls-16" d="M62.92,28.61c-1.33,1.38-3.13,2.51-3.57,2s.42-2.69,1.75-4.07,2.16-1.29,2.6-.82S64.24,27.22,62.92,28.61Z" transform="translate(56.34)"/><path class="cls-17" d="M26.13,47.52c0,2.17-.52,4.64-1.18,4.76S23.37,50.14,23.37,48s.35-3.26,1.33-3C26.1,45.24,26.13,45.35,26.13,47.52Z" transform="translate(56.34)"/><path class="cls-17" d="M46.2,59.91c0,2.17-.49,4.92-1.14,5s-1.62-2.42-1.63-4.59.35-3.27,1.33-3C46.16,57.63,46.19,57.74,46.2,59.91Z" transform="translate(56.34)"/><path class="cls-18" d="M39.77,52.54c.25.92.09,3.21-.32,3.4S38.26,54.25,38,53.33s-.15-1.45.52-1.57C39.49,51.59,39.52,51.63,39.77,52.54Z" transform="translate(56.34)"/><path class="cls-19" d="M52.43,17.29c1.07-.48,2.86-.51,2.75-.93A3.48,3.48,0,0,0,52,15.55c-1.07.48-1.51.93-1.15,1.47C51.31,17.78,51.37,17.77,52.43,17.29Z" transform="translate(56.34)"/><path class="cls-20" d="M32.8,63.86c.58,1,1.54,1.81,2,1.5s.34-1.85-.24-2.83-1.07-1.29-1.57-.64C32.22,62.81,32.23,62.88,32.8,63.86Z" transform="translate(56.34)"/><path class="cls-21" d="M36.88,56.59c.84.45,2,.52,2.3,0s-.2-1.74-1-2.19-1.4-.38-1.7.47C36,56.09,36,56.14,36.88,56.59Z" transform="translate(56.34)"/><path class="cls-22" d="M45.39,19.31c.79,2,1.16,4.49.55,4.84s-2.36-1.39-3.15-3.39S42,17.61,43,17.45C44.54,17.22,44.6,17.31,45.39,19.31Z" transform="translate(56.34)"/><path class="cls-23" d="M62.69,33.15c-1.88.28-3.67-1-3.64-1.62s2.07-.38,3.47-1.46c1.63-1.26,2.75-.09,2.37.86C64.35,32.29,64.57,32.87,62.69,33.15Z" transform="translate(56.34)"/><path class="cls-17" d="M19.68,52.54c2.09-.37,4.61-.45,4.6.23s-2.63,1.86-4.68,2.66-2-.23-2.68-.91S17.59,52.92,19.68,52.54Z" transform="translate(56.34)"/><path class="cls-24" d="M21,5.56c-.45,2.18-2.16,5.09-2.79,5.06s-.31-3.06.14-5.24S20,.48,20.67.51,21.43,3.38,21,5.56Z" transform="translate(56.34)"/><path class="cls-25" d="M12.15,20.43c1.57,2.3,3,3,2.51,3.77S12,24,9.8,23.71s-3.16-3.42-2.62-4.2S11,18.73,12.15,20.43Z" transform="translate(56.34)"/><path class="cls-26" d="M33.48,53c0,2.12-.54,4.5-1.13,4.61S30.94,55.46,31,53.34s.73-4.89,1.32-5S33.51,50.86,33.48,53Z" transform="translate(56.34)"/><path class="cls-27" d="M48,20.76c-.42,1.73-1.3,3.57-1.82,3.52s-.8-2-.38-3.76,1.53-3.85,2.05-3.8S48.45,19,48,20.76Z" transform="translate(56.34)"/><path class="cls-11" d="M15.68,4.23c1.12,2.23,1.75,5.06,1,5.56s-3-1.28-4.15-3.5-.68-3.39.06-3.89S14.56,2,15.68,4.23Z" transform="translate(56.34)"/><path class="cls-28" d="M30.55,38.93c.48,1,1.18,2.53.76,2.29-.84-.48-3.14.63-3.63-.33a2.18,2.18,0,0,1,.56-2.72A1.58,1.58,0,0,1,30.55,38.93Z" transform="translate(56.34)"/><path class="cls-4" d="M8.71,55.53a1.88,1.88,0,0,1,.84,2.69c-.73.91-1.75,1.75-2.74,1.39A1.89,1.89,0,0,1,6,56.92C6.91,54.88,7.71,55.17,8.71,55.53Z" transform="translate(56.34)"/><path class="cls-4" d="M14,37.44c-1,.62-2.5,1.35-3.44-.42-.5-1,.91-2.61,2-3.23a2.67,2.67,0,0,1,3.35,1C16.3,35.8,15.06,36.81,14,37.44Z" transform="translate(56.34)"/><path class="cls-29" d="M56.59,55.61a1.88,1.88,0,0,1,1.11-2,1.2,1.2,0,0,1,1.56,1.1,3,3,0,0,1-1.49,2.56C57,57.5,56.71,56.46,56.59,55.61Z" transform="translate(56.34)"/><path class="cls-4" d="M40.65,34.49a1.69,1.69,0,0,1-2.39-1.22,2.6,2.6,0,0,1,1.6-2.77,1.82,1.82,0,0,1,2.49,1.31A2.55,2.55,0,0,1,40.65,34.49Z" transform="translate(56.34)"/><path class="cls-30" d="M57.48,42.14a2.14,2.14,0,0,1-.86,2.58c-.88.6-2.93.72-2.82-.29a4,4,0,0,1,1.33-2.67A1.54,1.54,0,0,1,57.48,42.14Z" transform="translate(56.34)"/><ellipse class="cls-31" cx="31.72" cy="19.82" rx="1.89" ry="1.57" transform="translate(53.27 33.55) rotate(-53.54)"/><path class="cls-32" d="M49.45,82.94c-1.17.66-1,.06-.4-2.2-.64,1.64-.41.47-.3-2.19-.21,1.82-.1.08-.26-2.11,0,1.19-.06-.35-.33-1.69.21.06.14-1.69,0-2.37-.08-.31-.33-.55-.82-.24a12.65,12.65,0,0,0,.72-3.51c-.09-.38-.55.13-1.53,1.87.57-1.57,1-2.84,1.36-4s.65-2.16.92-3.23,2-6.81.82-3.55c1.44-4.72,4-9.08,1-4.94,2.92-4.14,1.37-2.23-.8,3.6,2.12-5.59,2.47-6.33.09-.54,2.43-6,3.81-7.33.93-4.41,2.88-2.92,2.21-2.49-.57,3,2.78-5.5,3.63-5.88.92-3.75,2.71-2.13,2.57-2-.31,1.53,2.88-3.55,3.13-3.63.65-2.3,2.48-1.33,2.65-1.25.57-.93,2.08-.32,2-.42.88-1.69,1.15,1.27,1,1.09.53-1.07.42,2.16-.07,1.77.56-1.67-.62,3.43-1,2.79,1.19-2.45-2.17,5.1-.82,2,1.29-2.1-1.66,3.32.87-1.9,1.39-2.76a3.87,3.87,0,0,1,1.49-1.56c1-.67,2.11-2.74,3.26-4q1.5-1.69,3.14-3.29c1.1-1.05,2.23-2.07,3.41-3s2.4-1.89,1.29-1.51c3.63-2.14,13.24-7.21,16.23-8.76,0,.43,1.47-.08,3-.52s3.12-.83,4.72-1.15a57.27,57.27,0,0,1,40.93,7.18q2.22,1.34,4.31,2.88c1.39.18,2.74,2.14,4,3.26,1.3,2,2.55.42,3.74,3.61,1.19.53,2.33,2.11,3.41,4,1.08.57,2.1,5.41,3,4.28.48,2.24.94,3.1,1.38,3.54s.88.47,1.29,1a3.82,3.82,0,0,1,1.18,2.4c.37,1.69.73,2.17,1.07,2.46.45,2.24.87,1.43,1.26,3.39.19,1.12.37,1.35.5,1.4.22.5.39.82.26.51.45,2.15.6,2.76.21.25.66,3.75.8,4.37.21.22.89,5.3,1,5.66.63.2.69,6.92.81,8,1.34,7.7-.35,2.69-.28,3.59,1.32,14.08-1.5-8.41-1.47-7.24-.55.79-.91-6.23-.93-5.3-.34.38-.66-3.87-.72-3-.37.46-.5-1.62-.6-.83-.57,1.2-.26-.42-.4.4-.56,1.6-.16.71-.34,1.11-.53,1.73a17.34,17.34,0,0,0-.65,3.23c-.24,1.27-.49,2.46-.72,3.31s-.61,1.55-.54,1.29c-.68,1.08-1,1.8,0,1.4-1.68,2-8.12,13.08-9.35,15.51-.19-.62-.93.27-1.75,1.21-.52.58-1.11,1.21-1.71,1.84s-1.22,1.23-1.85,1.83c-1.27-.45-2.59,2.43-4,3.41-1.37.16-2.8,1.61-4.28,3-1.48,2.78-3,3.15-4.58,2.67a9.31,9.31,0,0,0-4.86,2.25q-2.5,1-5.13,1.81T117,128.05c-1.57.31-3.14.55-4.7.73s-3.12.3-4.66.35a18.79,18.79,0,0,1-4.62,0c-1.53-.37-3,1.51-4.55-.4-1.5,1.2-3,.63-4.47-.75-1.47.4-2.92-1.86-4.36-1.1A7.46,7.46,0,0,0,87.5,126c-.73-.32-1.48-.78-2.1-.55-.84-.69-2.36-1.65-2.41-1-1.27-1.25-3.38-1.71-2.36-1.08-2-.84-3.64-.58-2.31-.7-2-.29-2.66-.32-2.25-1.79-1,1-1.33.62-2.19-1.58.2,1.69-.53.58-2.13-1.3.71,1.51-.71-.19-2-1.43.18.24-1.3-1.2-2-1.83a5.32,5.32,0,0,0-1.91-2A6,6,0,0,1,64,111.12a8.74,8.74,0,0,0-3.41-4q-1.61-2.05-3.05-4.28c-.76-1.18-1.48-2.4-2.16-3.64S54,96.72,53.44,95.42s-1.93-4-1.62-4c-1.14-2.27-2.73-4.94-1.34-4.17C48.71,85.15,48.44,84.36,49.45,82.94Z" transform="translate(56.34)"/><text class="cls-33" transform="translate(112.11 64.89) scale(1.07 1)">S<tspan class="cls-34" x="18.04" y="0">t</tspan><tspan class="cls-35" x="31.93" y="0">a</tspan><tspan class="cls-36" x="48.26" y="0">y</tspan></text><text class="cls-37" transform="translate(128.89 90.92) scale(1.07 1)">A<tspan class="cls-38" x="20.98" y="0">l</tspan><tspan class="cls-39" x="33.5" y="0">w</tspan><tspan class="cls-40" x="56.41" y="0">a</tspan><tspan class="cls-41" x="72.75" y="0">y</tspan><tspan class="cls-34" x="90.07" y="0">s</tspan><tspan class="cls-42" x="105.26" y="0">.</tspan></text><text x="56.34"/><text x="56.34"/></g></g></svg>