<svg xmlns="http://www.w3.org/2000/svg" viewBox="0 0 34.97 58.73"><defs><style>.cls-1,.cls-10,.cls-11,.cls-12,.cls-13,.cls-14,.cls-15,.cls-16,.cls-17,.cls-18,.cls-19,.cls-2,.cls-20,.cls-21,.cls-22,.cls-23,.cls-24,.cls-25,.cls-26,.cls-27,.cls-28,.cls-29,.cls-3,.cls-30,.cls-31,.cls-32,.cls-33,.cls-34,.cls-35,.cls-36,.cls-37,.cls-4,.cls-5,.cls-6,.cls-7,.cls-8,.cls-9{fill:none;stroke:#231815;stroke-miterlimit:10;}.cls-1{stroke-width:0.46px;}.cls-2{stroke-width:0.58px;}.cls-3{stroke-width:0.51px;}.cls-4{stroke-width:0.49px;}.cls-5{stroke-width:0.43px;}.cls-6{stroke-width:0.46px;}.cls-7{stroke-width:0.41px;}.cls-8{stroke-width:0.3px;}.cls-9{stroke-width:0.52px;}.cls-10{stroke-width:0.37px;}.cls-11{stroke-width:0.48px;}.cls-12{stroke-width:0.53px;}.cls-13{stroke-width:0.31px;}.cls-14{stroke-width:0.27px;}.cls-15{stroke-width:0.39px;}.cls-16{stroke-width:0.24px;}.cls-17{stroke-width:0.38px;}.cls-18{stroke-width:0.41px;}.cls-19{stroke-width:0.43px;}.cls-20{stroke-width:0.36px;}.cls-21{stroke-width:0.4px;}.cls-22{stroke-width:0.22px;}.cls-23{stroke-width:0.24px;}.cls-24{stroke-width:0.26px;}.cls-25{stroke-width:0.26px;}.cls-26{stroke-width:0.42px;}.cls-27{stroke-width:0.36px;}.cls-28{stroke-width:0.4px;}.cls-29{stroke-width:0.48px;}.cls-30{stroke-width:0.38px;}.cls-31{stroke-width:0.52px;}.cls-32{stroke-width:0.33px;}.cls-33{stroke-width:0.51px;}.cls-34{stroke-width:0.51px;}.cls-35{stroke-width:0.41px;}.cls-36{stroke-width:0.5px;}.cls-37{stroke-width:0.48px;}</style></defs><g id="圖層_2" data-name="圖層 2"><g id="圖層_1-2" data-name="圖層 1"><path class="cls-1" d="M23.18,51.52c1.52-8.26,3.35-26.38-.81-33.24l-.88-3.91S19,9.46,18.64,8.81"/><path class="cls-1" d="M21.64,14.33a14.82,14.82,0,0,0,1.11-4.24"/><path class="cls-1" d="M18.7,8.91c.1.49-1-.65-2.58-.53"/><line class="cls-1" x1="18.7" y1="8.91" x2="18.31" y2="3.88"/><path class="cls-1" d="M22.37,18.28a4.56,4.56,0,0,1-2-1"/><path class="cls-1" d="M21.82,27.4A8.15,8.15,0,0,0,19,26.64"/><path class="cls-1" d="M21.09,26.25a13,13,0,0,0,.47-2.14"/><path class="cls-1" d="M27.79,57.08c.2-9.21-1.87-27-8.83-33.31-.37-.38-4.37-6.53-8-8.29"/><path class="cls-1" d="M13.56,17.35s.36-3.4-.49-4.53"/><path class="cls-1" d="M14.19,18a15.42,15.42,0,0,1-4,1.67"/><path class="cls-1" d="M29.41,58.63c-2.41-5-5-17.34-4.08-28.6.57-7.2,2.57-14,6.94-18"/><path class="cls-1" d="M25.33,30S26.78,30.31,29,27"/><path class="cls-1" d="M26.33,23.41a21,21,0,0,0,3.22-1.67"/><path class="cls-1" d="M27.33,20.19a54.59,54.59,0,0,0,5.12-2.31"/><path class="cls-1" d="M28,18.22a33.81,33.81,0,0,1-2.37-2.51"/><path class="cls-1" d="M30.12,14.47a10.67,10.67,0,0,1-1.87-1.07"/><path class="cls-1" d="M11,28.07c2.17.25,21,11.1,22,20.27"/><path class="cls-2" d="M9.62,14.28c1,.62,1.89,1.21,1.7,1.58s-1.35,0-2.56,0S7.7,14.87,7.9,14.5A1.14,1.14,0,0,1,9.62,14.28Z"/><path class="cls-3" d="M11.94,13.23c-.09,1-.33,2.31-.69,2.29s-.93-1.45-.84-2.42.5-1.22.86-1.2S12,12.27,11.94,13.23Z"/><path class="cls-4" d="M16.74,6.67c-.06.85-.31,2.12-.69,2.11s-.93-1.36-.88-2.21.46-1.07.83-1.06S16.79,5.82,16.74,6.67Z"/><path class="cls-5" d="M14.33,8.22c1,.23,1.74-.07,1.81.22s-.75.89-1.56,1.05-1.11-.12-1.18-.42A.73.73,0,0,1,14.33,8.22Z"/><path class="cls-2" d="M14.59,30.55c1.09-.13,2.32.06,2.37.46s-1.09,1.11-2.18,1.24-1.46-.26-1.51-.66S13.5,30.67,14.59,30.55Z"/><path class="cls-6" d="M21.54,29.36c1,.34,1.9,1,1.79,1.24s-1.27.15-2.26-.19-1.17-.7-1.06-.95S20.55,29,21.54,29.36Z"/><path class="cls-7" d="M7.79,26c.71.39,1.55.33,1.4.56a2.47,2.47,0,0,1-2.06.42c-1.09-.36-1.2-.71-.61-1A1.1,1.1,0,0,1,7.79,26Z"/><path class="cls-7" d="M1.69,20.7c.8.2,1.6-.05,1.52.21a2.39,2.39,0,0,1-1.89.88C.17,21.69,0,21.38.46,21A1.1,1.1,0,0,1,1.69,20.7Z"/><path class="cls-8" d="M32.89,16.73c-.14.55-.47,1.1-.69,1.06s-.36-.72-.22-1.27.41-.65.62-.61S33,16.18,32.89,16.73Z"/><path class="cls-9" d="M17.21,22.73c.95.3,2.23.74,2.1,1.08s-1.72.62-2.67.32-1.09-.73-1-1.07S16.26,22.43,17.21,22.73Z"/><path class="cls-10" d="M7.47,22.81c-.19,1,0,1.59-.17,1.53A2.2,2.2,0,0,1,6.38,23c-.15-.69.08-.94.34-1A.66.66,0,0,1,7.47,22.81Z"/><path class="cls-11" d="M2.2,19.14c.74.57,1.37,1.39,1.15,1.63s-1.36-.08-2.1-.65-.72-1-.5-1.22S1.46,18.56,2.2,19.14Z"/><path class="cls-12" d="M34,11.07c-.77.32-1.52.82-1.91.58s-.25-1.06.13-2c.3-.76.3-.9,1.43-.35C34.66,9.8,34.87,10.72,34,11.07Z"/><path class="cls-13" d="M32,9.84c-.43.7-.08,1-.33,1.07s-.61,0-.94-.56-.32-.82.31-1.08S32.26,9.41,32,9.84Z"/><path class="cls-14" d="M17.7,26.22c0,.37-.13.72.07.9s.61.12,1-.06.42-.15-.1-.68S17.72,25.82,17.7,26.22Z"/><path class="cls-15" d="M33.9,12.6c-.7,0-1.47-.14-1.49-.43s.74-.73,1.44-.77.91.24.93.52S34.6,12.55,33.9,12.6Z"/><path class="cls-16" d="M23.06,24.08c-.41.18-.92.24-1,.08s.28-.56.69-.74.61-.05.68.1S23.47,23.91,23.06,24.08Z"/><path class="cls-17" d="M34,17.91c-.66.29-1.48.4-1.6.16s.45-.9,1.11-1.18,1-.12,1.09.12S34.63,17.63,34,17.91Z"/><path class="cls-18" d="M17.72,18.72c-.23.79-.69,1.59-1,1.53s-.39-1-.16-1.81.47-1.12.83-.88C17.94,17.9,17.94,17.94,17.72,18.72Z"/><path class="cls-19" d="M8.93,28.51c1,0,2.08-.24,2.08-.49s-1.12-.59-2.12-.57-1.46.16-1.27.53C7.89,28.52,7.94,28.53,8.93,28.51Z"/><path class="cls-20" d="M5,24.72a3.33,3.33,0,0,0,2.29-.2c.08-.19-1.21-.37-2-.62s-1.18-.27-1.16.07S4.23,24.47,5,24.72Z"/><path class="cls-18" d="M24.38,29.19c-.23.78-.7,1.69-1,1.63s-.38-1.14-.15-1.92.48-1.12.83-.88C24.6,28.36,24.6,28.4,24.38,29.19Z"/><path class="cls-21" d="M5.46,22.41c.34.69,1.39,1.53,1.13,1.63A3.83,3.83,0,0,1,4.3,22.62c-.34-.7-.25-1.16.19-1.18C5.12,21.4,5.13,21.71,5.46,22.41Z"/><path class="cls-18" d="M11.75,26c-.08.81-.36,1.67-.64,1.66s-.59-.95-.52-1.75-.29-2.29.64-1.42C11.68,24.9,11.89,24.53,11.75,26Z"/><path class="cls-18" d="M3.6,18.71c.19.79.17,1.69-.1,1.74s-.86-.75-1-1.53-.13-1.19.31-1.13C3.4,17.88,3.42,17.92,3.6,18.71Z"/><path class="cls-18" d="M9.84,24.83c-.07.8-.38,1.66-.66,1.64s-.57-.94-.49-1.75.26-1.18.66-1C9.91,24,9.92,24,9.84,24.83Z"/><path class="cls-22" d="M22.49,22.76c0,.37-.3,1.17-.48,1.17s-.29-.81-.29-1.18.1-.54.37-.48S22.49,22.39,22.49,22.76Z"/><path class="cls-23" d="M31.08,12.13c.46,0,1.16.28,1.16.11a1.71,1.71,0,0,0-1.17-.82c-.46,0-.68.09-.6.34S30.62,12.13,31.08,12.13Z"/><path class="cls-24" d="M18.6,25.7c.12.45.41.9.6.86s.33-.61.21-1.06-.29-.64-.55-.49S18.48,25.25,18.6,25.7Z"/><path class="cls-25" d="M20.94,23.74c.28.3.72.52.9.38s.1-.66-.18-.95-.5-.37-.71-.11S20.67,23.44,20.94,23.74Z"/><path class="cls-26" d="M28.14,11.71c.09.85,0,1.8-.3,1.83s-.77-.89-.87-1.74,0-1.27.44-1.15C28,10.81,28,10.86,28.14,11.71Z"/><path class="cls-27" d="M33.41,19.51c-.76-.2-1.32-1-1.25-1.18s.85.2,1.5,0,1.08.42.83.7S34.17,19.72,33.41,19.51Z"/><path class="cls-18" d="M14.69,19.48c.85.21,1.83.59,1.76.83s-1.21.24-2.09.2-.75-.41-.95-.77S13.84,19.27,14.69,19.48Z"/><path class="cls-28" d="M20.09,2.77c-.4.71-1.37,1.48-1.61,1.37s.2-1.16.6-1.87S20.26.79,20.5.9,20.49,2.06,20.09,2.77Z"/><path class="cls-29" d="M15.12,6.68c.36,1.09.87,1.58.58,1.77s-1-.5-1.84-1S13,5.74,13.28,5.54,14.85,5.89,15.12,6.68Z"/><path class="cls-30" d="M20,21.89c-.23.75-.68,1.53-.92,1.47s-.32-1-.09-1.75S19.78,20,20,20,20.24,21.13,20,21.89Z"/><path class="cls-31" d="M17.21,28.76c0,.93-.3,1.95-.69,2s-.94-1-.94-2,.41-2.11.8-2.12S17.2,27.83,17.21,28.76Z"/><path class="cls-32" d="M29,12.66c-.34.55-.88,1.07-1.07,1s-.1-.86.24-1.42,1-1.13,1.19-1S29.35,12.11,29,12.66Z"/><path class="cls-33" d="M18.17,1.43c.21,1,.48,2.39.14,2.45S17,2.64,16.74,1.66s.09-1.34.43-1.4S18,.44,18.17,1.43Z"/><path class="cls-34" d="M20.33,16.35c.08.43.19,1.1.06.95C20.11,17,19.1,17,19,16.59a.72.72,0,0,1,.5-.89A.77.77,0,0,1,20.33,16.35Z"/><path class="cls-2" d="M10.12,18.76c.35.3.28,1.14.05,1.11-.47-.05-.87.35-1.21.06a.74.74,0,0,1-.05-1.11C9.49,18.24,9.77,18.47,10.12,18.76Z"/><path class="cls-2" d="M14.06,13.11a.82.82,0,0,1-.94-.68.8.8,0,0,1,.75-.87,1.3,1.3,0,0,1,1.2.91C15.12,12.9,14.53,13.06,14.06,13.11Z"/><path class="cls-35" d="M28.7,26.6a.6.6,0,0,1,.64-.54.57.57,0,0,1,.49.65,1,1,0,0,1-.84.68C28.67,27.36,28.66,26.93,28.7,26.6Z"/><path class="cls-2" d="M24.71,16.4a.81.81,0,0,1-.8-.83.85.85,0,0,1,.91-.74,1.26,1.26,0,0,1,1,1.09C25.79,16.36,25.18,16.42,24.71,16.4Z"/><path class="cls-36" d="M30.87,21.61a.69.69,0,0,1-.6.79c-.4.07-1-.31-.89-.66s.33-.59.62-.65A.72.72,0,0,1,30.87,21.61Z"/><path class="cls-37" d="M22.75,10.09a1.18,1.18,0,0,1-1-.82.68.68,0,0,1,.63-.74.7.7,0,0,1,.79.57C23.19,9.46,23.14,10.05,22.75,10.09Z"/></g></g></svg>