<svg xmlns="http://www.w3.org/2000/svg" viewBox="0 0 58.35 54.7"><defs><style>.cls-1{fill:#515b2a;}</style></defs><g id="圖層_2" data-name="圖層 2"><g id="圖層_1-2" data-name="圖層 1"><path class="cls-1" d="M10.83,1.28A3.65,3.65,0,0,1,13.6,0H44.74a3.67,3.67,0,0,1,2.78,1.28L57,12.38a5.46,5.46,0,0,1,1.32,3.56v.93a8.66,8.66,0,0,1-15.5,5.31,8.66,8.66,0,0,1-13.68,0,8.65,8.65,0,0,1-13.67,0A8.66,8.66,0,0,1,0,16.87v-.93a5.46,5.46,0,0,1,1.32-3.56L10.83,1.27Zm6.49,15.59a5,5,0,0,0,10,0,1.83,1.83,0,1,1,3.65,0,5,5,0,0,0,10,0,1.83,1.83,0,1,1,3.65,0,5,5,0,0,0,10,0v-.93a1.84,1.84,0,0,0-.44-1.19L44.74,3.65H13.6L4.08,14.75a1.83,1.83,0,0,0-.43,1.19v.93a5,5,0,0,0,10,0,1.83,1.83,0,1,1,3.65,0ZM5.47,27.35a1.82,1.82,0,0,1,1.82,1.82V51.05h3.65V32.82a3.65,3.65,0,0,1,3.65-3.65H25.53a3.65,3.65,0,0,1,3.64,3.65V51.05H51.05V29.17a1.83,1.83,0,0,1,3.65,0V51.05h1.82a1.83,1.83,0,1,1,0,3.65H1.82a1.83,1.83,0,0,1,0-3.65H3.65V29.17A1.82,1.82,0,0,1,5.47,27.35Zm9.12,23.7H25.53V32.82H14.59ZM32.82,32.82a3.65,3.65,0,0,1,3.65-3.65h7.29a3.66,3.66,0,0,1,3.65,3.65V43.76a3.66,3.66,0,0,1-3.65,3.65H36.47a3.65,3.65,0,0,1-3.65-3.65Zm10.94,0H36.47V43.76h7.29Z"/></g></g></svg>